<svg width="1024" height="600" viewBox="0 0 1024 600" fill="none" xmlns="http://www.w3.org/2000/svg">
<rect width="1024" height="600" fill="#001731"/>
<rect width="1024" height="60" fill="url(#paint0_linear_3_36)"/>
<rect x="362" y="17" width="300" height="25" rx="5" fill="#002E62"/>
<path d="M481.776 29.7614V33H480.714V27.5455H481.733V28.4332H481.8C481.926 28.1444 482.122 27.9124 482.39 27.7372C482.66 27.562 483 27.4744 483.409 27.4744C483.781 27.4744 484.106 27.5526 484.386 27.7088C484.665 27.8627 484.882 28.0923 485.036 28.3977C485.189 28.7031 485.266 29.0807 485.266 29.5305V33H484.205V29.6584C484.205 29.263 484.102 28.9541 483.896 28.7315C483.69 28.5066 483.407 28.3942 483.047 28.3942C482.801 28.3942 482.582 28.4474 482.39 28.554C482.201 28.6605 482.05 28.8168 481.939 29.0227C481.83 29.2263 481.776 29.4725 481.776 29.7614ZM488.278 33.1207C487.932 33.1207 487.62 33.0568 487.34 32.929C487.061 32.7988 486.839 32.6106 486.676 32.3643C486.515 32.1181 486.435 31.8163 486.435 31.4588C486.435 31.151 486.494 30.8977 486.612 30.6989C486.731 30.5 486.89 30.3426 487.092 30.2266C487.293 30.1106 487.518 30.023 487.766 29.9638C488.015 29.9046 488.268 29.8596 488.526 29.8288C488.853 29.791 489.118 29.7602 489.322 29.7365C489.525 29.7105 489.673 29.669 489.766 29.6122C489.858 29.5554 489.904 29.4631 489.904 29.3352V29.3104C489.904 29.0002 489.817 28.7599 489.641 28.5895C489.469 28.419 489.21 28.3338 488.867 28.3338C488.51 28.3338 488.228 28.4131 488.022 28.5717C487.818 28.728 487.678 28.902 487.599 29.0938L486.602 28.8665C486.72 28.535 486.893 28.2675 487.12 28.0639C487.35 27.858 487.614 27.7088 487.912 27.6165C488.21 27.5218 488.524 27.4744 488.853 27.4744C489.071 27.4744 489.302 27.5005 489.545 27.5526C489.792 27.6023 490.021 27.6946 490.234 27.8295C490.45 27.9645 490.626 28.1574 490.763 28.4084C490.901 28.657 490.969 28.9801 490.969 29.3778V33H489.933V32.2543H489.89C489.821 32.3916 489.718 32.5265 489.581 32.6591C489.444 32.7917 489.267 32.9018 489.052 32.9893C488.836 33.0769 488.578 33.1207 488.278 33.1207ZM488.509 32.2685C488.802 32.2685 489.053 32.2105 489.261 32.0945C489.472 31.9785 489.632 31.8269 489.741 31.6399C489.852 31.4505 489.908 31.2481 489.908 31.0327V30.3295C489.87 30.3674 489.796 30.4029 489.688 30.4361C489.581 30.4669 489.459 30.4941 489.322 30.5178C489.184 30.5391 489.051 30.5592 488.92 30.5781C488.79 30.5947 488.681 30.6089 488.594 30.6207C488.388 30.6468 488.2 30.6906 488.029 30.7521C487.861 30.8137 487.726 30.9025 487.624 31.0185C487.525 31.1321 487.475 31.2836 487.475 31.473C487.475 31.7358 487.572 31.9347 487.766 32.0696C487.96 32.2022 488.208 32.2685 488.509 32.2685ZM496.855 27.5455L494.877 33H493.74L491.759 27.5455H492.899L494.28 31.7429H494.337L495.715 27.5455H496.855ZM499.284 33.1207C498.938 33.1207 498.625 33.0568 498.346 32.929C498.067 32.7988 497.845 32.6106 497.682 32.3643C497.521 32.1181 497.441 31.8163 497.441 31.4588C497.441 31.151 497.5 30.8977 497.618 30.6989C497.736 30.5 497.896 30.3426 498.097 30.2266C498.299 30.1106 498.524 30.023 498.772 29.9638C499.021 29.9046 499.274 29.8596 499.532 29.8288C499.859 29.791 500.124 29.7602 500.328 29.7365C500.531 29.7105 500.679 29.669 500.771 29.6122C500.864 29.5554 500.91 29.4631 500.91 29.3352V29.3104C500.91 29.0002 500.822 28.7599 500.647 28.5895C500.474 28.419 500.216 28.3338 499.873 28.3338C499.516 28.3338 499.234 28.4131 499.028 28.5717C498.824 28.728 498.683 28.902 498.605 29.0938L497.607 28.8665C497.726 28.535 497.899 28.2675 498.126 28.0639C498.356 27.858 498.619 27.7088 498.918 27.6165C499.216 27.5218 499.53 27.4744 499.859 27.4744C500.077 27.4744 500.307 27.5005 500.551 27.5526C500.798 27.6023 501.027 27.6946 501.24 27.8295C501.456 27.9645 501.632 28.1574 501.769 28.4084C501.907 28.657 501.975 28.9801 501.975 29.3778V33H500.938V32.2543H500.896C500.827 32.3916 500.724 32.5265 500.587 32.6591C500.45 32.7917 500.273 32.9018 500.058 32.9893C499.842 33.0769 499.584 33.1207 499.284 33.1207ZM499.514 32.2685C499.808 32.2685 500.059 32.2105 500.267 32.0945C500.478 31.9785 500.638 31.8269 500.747 31.6399C500.858 31.4505 500.914 31.2481 500.914 31.0327V30.3295C500.876 30.3674 500.802 30.4029 500.693 30.4361C500.587 30.4669 500.465 30.4941 500.328 30.5178C500.19 30.5391 500.057 30.5592 499.926 30.5781C499.796 30.5947 499.687 30.6089 499.6 30.6207C499.394 30.6468 499.205 30.6906 499.035 30.7521C498.867 30.8137 498.732 30.9025 498.63 31.0185C498.531 31.1321 498.481 31.2836 498.481 31.473C498.481 31.7358 498.578 31.9347 498.772 32.0696C498.966 32.2022 499.214 32.2685 499.514 32.2685ZM504.451 25.7273V33H503.39V25.7273H504.451ZM505.88 33V27.5455H506.906V28.4119H506.963C507.062 28.1184 507.238 27.8875 507.488 27.7195C507.742 27.549 508.028 27.4638 508.348 27.4638C508.414 27.4638 508.492 27.4661 508.582 27.4709C508.675 27.4756 508.747 27.4815 508.799 27.4886V28.5043C508.756 28.4924 508.68 28.4794 508.572 28.4652C508.463 28.4486 508.354 28.4403 508.245 28.4403C507.994 28.4403 507.77 28.4936 507.574 28.6001C507.38 28.7043 507.226 28.8499 507.112 29.0369C506.998 29.2216 506.942 29.4323 506.942 29.669V33H505.88ZM509.718 33V27.5455H510.779V33H509.718ZM510.254 26.7038C510.069 26.7038 509.911 26.6423 509.778 26.5192C509.648 26.3937 509.583 26.2446 509.583 26.0717C509.583 25.8965 509.648 25.7474 509.778 25.6243C509.911 25.4988 510.069 25.4361 510.254 25.4361C510.439 25.4361 510.596 25.4988 510.726 25.6243C510.859 25.7474 510.925 25.8965 510.925 26.0717C510.925 26.2446 510.859 26.3937 510.726 26.5192C510.596 26.6423 510.439 26.7038 510.254 26.7038ZM514.804 27.5455V28.3977H511.721V27.5455H514.804ZM512.567 33V26.9134C512.567 26.5724 512.641 26.2895 512.79 26.0646C512.939 25.8374 513.137 25.6681 513.383 25.5568C513.63 25.4432 513.897 25.3864 514.186 25.3864C514.399 25.3864 514.581 25.4041 514.733 25.4396C514.884 25.4728 514.997 25.5036 515.07 25.532L514.822 26.3913C514.772 26.3771 514.708 26.3606 514.63 26.3416C514.552 26.3203 514.457 26.3097 514.346 26.3097C514.088 26.3097 513.903 26.3736 513.792 26.5014C513.683 26.6293 513.628 26.8139 513.628 27.0554V33H512.567ZM518.445 27.5455V28.3977H515.466V27.5455H518.445ZM516.265 26.2386H517.327V31.3984C517.327 31.6044 517.358 31.7595 517.419 31.8636C517.481 31.9654 517.56 32.0353 517.657 32.0732C517.757 32.1087 517.864 32.1264 517.98 32.1264C518.066 32.1264 518.14 32.1205 518.204 32.1087C518.268 32.0968 518.318 32.0874 518.353 32.0803L518.545 32.9574C518.483 32.9811 518.396 33.0047 518.282 33.0284C518.169 33.0545 518.026 33.0687 517.856 33.071C517.577 33.0758 517.316 33.026 517.075 32.9219C516.833 32.8177 516.638 32.6567 516.489 32.4389C516.34 32.2211 516.265 31.9477 516.265 31.6186V26.2386ZM520.32 33.0675C520.125 33.0675 519.959 32.9988 519.819 32.8615C519.679 32.7218 519.609 32.5537 519.609 32.3572C519.609 32.1631 519.679 31.9974 519.819 31.8601C519.959 31.7204 520.125 31.6506 520.32 31.6506C520.514 31.6506 520.681 31.7204 520.82 31.8601C520.96 31.9974 521.03 32.1631 521.03 32.3572C521.03 32.4875 520.997 32.607 520.93 32.7159C520.866 32.8224 520.781 32.9077 520.675 32.9716C520.568 33.0355 520.45 33.0675 520.32 33.0675ZM524.75 33.1101C524.222 33.1101 523.767 32.9905 523.386 32.7514C523.007 32.5099 522.716 32.1773 522.512 31.7536C522.309 31.3298 522.207 30.8445 522.207 30.2976C522.207 29.7436 522.311 29.2547 522.52 28.831C522.728 28.4048 523.021 28.0722 523.4 27.8331C523.779 27.594 524.225 27.4744 524.739 27.4744C525.153 27.4744 525.523 27.5514 525.847 27.7053C526.171 27.8568 526.433 28.0698 526.632 28.3445C526.833 28.6191 526.953 28.9399 526.99 29.3068H525.957C525.9 29.0511 525.77 28.831 525.566 28.6463C525.365 28.4616 525.095 28.3693 524.757 28.3693C524.461 28.3693 524.202 28.4474 523.979 28.6037C523.759 28.7576 523.587 28.9777 523.464 29.2642C523.341 29.5483 523.279 29.8845 523.279 30.2727C523.279 30.6705 523.34 31.0137 523.461 31.3026C523.581 31.5914 523.752 31.8151 523.972 31.9737C524.194 32.1323 524.456 32.2116 524.757 32.2116C524.958 32.2116 525.14 32.175 525.304 32.1016C525.469 32.0258 525.608 31.9181 525.719 31.7784C525.833 31.6387 525.912 31.4706 525.957 31.2741H526.99C526.953 31.6269 526.838 31.9418 526.646 32.2188C526.454 32.4957 526.197 32.7135 525.875 32.8722C525.556 33.0308 525.181 33.1101 524.75 33.1101ZM530.423 33.1101C529.912 33.1101 529.466 32.9929 529.085 32.7585C528.704 32.5241 528.408 32.1963 528.197 31.7749C527.986 31.3535 527.881 30.861 527.881 30.2976C527.881 29.7318 527.986 29.237 528.197 28.8132C528.408 28.3894 528.704 28.0604 529.085 27.826C529.466 27.5916 529.912 27.4744 530.423 27.4744C530.935 27.4744 531.381 27.5916 531.762 27.826C532.143 28.0604 532.439 28.3894 532.65 28.8132C532.861 29.237 532.966 29.7318 532.966 30.2976C532.966 30.861 532.861 31.3535 532.65 31.7749C532.439 32.1963 532.143 32.5241 531.762 32.7585C531.381 32.9929 530.935 33.1101 530.423 33.1101ZM530.427 32.2188C530.758 32.2188 531.033 32.1312 531.251 31.956C531.469 31.7808 531.63 31.5476 531.734 31.2564C531.84 30.9652 531.894 30.6444 531.894 30.294C531.894 29.946 531.84 29.6264 531.734 29.3352C531.63 29.0417 531.469 28.8061 531.251 28.6286C531.033 28.451 530.758 28.3622 530.427 28.3622C530.093 28.3622 529.816 28.451 529.596 28.6286C529.378 28.8061 529.216 29.0417 529.11 29.3352C529.005 29.6264 528.953 29.946 528.953 30.294C528.953 30.6444 529.005 30.9652 529.11 31.2564C529.216 31.5476 529.378 31.7808 529.596 31.956C529.816 32.1312 530.093 32.2188 530.427 32.2188ZM534.151 33V27.5455H535.17V28.4332H535.238C535.352 28.1326 535.537 27.8982 535.795 27.7301C536.054 27.5597 536.362 27.4744 536.722 27.4744C537.087 27.4744 537.392 27.5597 537.638 27.7301C537.887 27.9006 538.071 28.1349 538.189 28.4332H538.246C538.376 28.142 538.583 27.91 538.867 27.7372C539.151 27.562 539.49 27.4744 539.883 27.4744C540.378 27.4744 540.781 27.6295 541.094 27.9396C541.409 28.2498 541.566 28.7173 541.566 29.3423V33H540.504V29.4418C540.504 29.0724 540.404 28.8049 540.202 28.6392C540.001 28.4735 539.761 28.3906 539.482 28.3906C539.136 28.3906 538.867 28.4972 538.675 28.7102C538.484 28.9209 538.388 29.192 538.388 29.5234V33H537.33V29.3743C537.33 29.0784 537.237 28.8404 537.053 28.6605C536.868 28.4806 536.628 28.3906 536.332 28.3906C536.13 28.3906 535.945 28.4439 535.774 28.5504C535.606 28.6546 535.47 28.8002 535.366 28.9872C535.264 29.1742 535.213 29.3909 535.213 29.6371V33H534.151Z" fill="white"/>
<path d="M136 24L130 30L136 36" stroke="#9E9E9E" stroke-width="2" stroke-linecap="round" stroke-linejoin="round"/>
<path d="M166 36L172 30L166 24" stroke="#002D5C" stroke-width="2" stroke-linecap="round" stroke-linejoin="round"/>
<circle cx="37.5" cy="30.5" r="7.5" fill="#FF5F57"/>
<circle cx="62.5" cy="30.5" r="7.5" fill="#FEBC2E"/>
<circle cx="87.5" cy="30.5" r="7.5" fill="#27C840"/>
<defs>
<linearGradient id="paint0_linear_3_36" x1="429.5" y1="-166" x2="484.5" y2="270" gradientUnits="userSpaceOnUse">
<stop stop-color="#002E62"/>
<stop offset="1" stop-color="#001731" stop-opacity="0"/>
</linearGradient>
</defs>
</svg>
