<svg width="448" height="349" viewBox="0 0 448 349" fill="none" xmlns="http://www.w3.org/2000/svg">
<path d="M324.325 274C320.241 306.561 356 321 356 321" stroke="#3F3F45" stroke-width="5"/>
<path d="M237 3H367.4C396.119 3 419.4 26.2812 419.4 55V184C419.4 187.866 422.534 191 426.4 191H440.5" stroke="#3F3F45" stroke-width="5"/>
<rect x="56" y="3" width="72" height="5" rx="2.5" fill="#3F3F45"/>
<rect x="46.5" y="28.5" width="348" height="247" rx="29.5" stroke="#3F3F45" stroke-width="5"/>
<rect x="64.5" y="47.5" width="311" height="208" rx="15.5" stroke="#3F3F45" stroke-width="5"/>
<rect x="393" y="227" width="52" height="5" rx="2.5" fill="#3F3F45"/>
<path d="M174 276H265L284 321H155L174 276Z" fill="#3F3F45"/>
<rect x="26.5" y="320.5" width="386" height="26" rx="13" stroke="#3F3F45" stroke-width="5"/>
<path d="M47.5 78.5H22C21.4477 78.5 21 78.9477 21 79.5V201" stroke="#3F3F45" stroke-width="5"/>
<rect x="2" y="226" width="45" height="5" rx="2.5" fill="#3F3F45"/>
<rect x="87" y="71" width="5" height="162" rx="2.5" fill="#3F3F45"/>
<rect x="164" y="101" width="103" height="33" rx="5" fill="white"/>
<rect x="123.5" y="74.5" width="184" height="127" rx="3.5" stroke="#3F3F45" stroke-width="5"/>
<rect x="121" y="228" width="189" height="5" rx="2.5" fill="#3F3F45"/>
<circle cx="342.5" cy="90.5" r="10" stroke="white" stroke-width="5"/>
<circle cx="342.5" cy="121.5" r="10" stroke="white" stroke-width="5"/>
<circle cx="342.5" cy="155.5" r="10" stroke="white" stroke-width="5"/>
<circle cx="342.5" cy="189.5" r="10" stroke="white" stroke-width="5"/>
<circle cx="342.5" cy="220.5" r="10" stroke="white" stroke-width="5"/>
<rect x="2" y="287" width="446" height="62" fill="url(#paint0_linear_7_106)"/>
<rect x="446" y="62" width="446" height="62" transform="rotate(-180 446 62)" fill="url(#paint1_linear_7_106)"/>
<rect x="62" y="3" width="346" height="62" transform="rotate(90 62 3)" fill="url(#paint2_linear_7_106)"/>
<rect x="384" y="349" width="346" height="62" transform="rotate(-90 384 349)" fill="url(#paint3_linear_7_106)"/>
<defs>
<linearGradient id="paint0_linear_7_106" x1="225" y1="287" x2="225" y2="349" gradientUnits="userSpaceOnUse">
<stop stop-opacity="0"/>
<stop offset="1"/>
</linearGradient>
<linearGradient id="paint1_linear_7_106" x1="669" y1="62" x2="669" y2="124" gradientUnits="userSpaceOnUse">
<stop stop-opacity="0"/>
<stop offset="1"/>
</linearGradient>
<linearGradient id="paint2_linear_7_106" x1="235" y1="3" x2="235" y2="65" gradientUnits="userSpaceOnUse">
<stop stop-opacity="0"/>
<stop offset="1"/>
</linearGradient>
<linearGradient id="paint3_linear_7_106" x1="557" y1="349" x2="557" y2="411" gradientUnits="userSpaceOnUse">
<stop stop-opacity="0"/>
<stop offset="1"/>
</linearGradient>
</defs>
</svg>
