<svg width="500" height="500" viewBox="0 0 500 500" fill="none" xmlns="http://www.w3.org/2000/svg">
<g clip-path="url(#clip0_7_74)">
<rect width="500" height="500" fill="black"/>
<path d="M124.5 0V500M250.5 0V500M375.5 0V500M0 99.5H500M0 199.5H500M0 300.5H500M0 400.5H500" stroke="#3F3F45"/>
<rect x="43" y="143.5" width="45" height="141" rx="7.5" stroke="#3F3F45"/>
<path d="M29.2639 79.3152C36.6755 46.2963 44.9643 31.1509 63.8107 11.2812C64.9923 10.0354 66.9854 10.0565 68.1423 11.3253C86.7453 31.7281 94.9868 46.6644 101.304 79.4751C101.434 80.1489 101.5 80.8454 101.5 81.5315V343.079C101.5 344.993 101.009 346.87 99.9941 348.493C96.938 353.382 89.8446 363.855 84.5 365C77.5 366.5 52 367.5 45 365C39.6773 363.099 33.1983 353.104 30.3989 348.423C29.4543 346.843 29 345.036 29 343.195V81.7011C29 80.9027 29.089 80.0941 29.2639 79.3152Z" stroke="#3F3F45"/>
<path d="M30.7513 84.9717C37.8105 53.5229 45.7053 39.0976 63.6555 20.1728C64.7809 18.9862 66.6793 19.0063 67.7811 20.2148C85.4995 39.6474 93.3491 53.8735 99.3663 85.124C99.4899 85.7658 99.5527 86.4291 99.5527 87.0827V336.194C99.5527 338.017 99.0848 339.804 98.1184 341.35C95.2076 346.007 88.4515 355.982 83.361 357.072C76.6939 358.501 52.4064 359.454 45.7392 357.072C40.6696 355.262 34.4987 345.742 31.8324 341.283C30.9327 339.779 30.5 338.057 30.5 336.304V87.2442C30.5 86.4838 30.5848 85.7136 30.7513 84.9717Z" stroke="#3F3F45" stroke-width="0.952451"/>
<rect x="45" y="101.5" width="10" height="14" rx="1.5" stroke="#3F3F45"/>
<rect x="75" y="101.5" width="10" height="14" rx="1.5" stroke="#3F3F45"/>
<rect x="56" y="153.5" width="19" height="34" rx="9.5" stroke="#3F3F45"/>
<g filter="url(#filter0_d_7_74)">
<rect x="56" y="198.5" width="19" height="34" rx="9.5" stroke="#3F3F45" shape-rendering="crispEdges"/>
</g>
<rect x="56" y="243.5" width="19" height="24" rx="1.5" stroke="#3F3F45"/>
<rect x="43" y="143.5" width="45" height="141" rx="7.5" stroke="#3F3F45"/>
<path d="M29.2639 79.3152C36.6755 46.2963 44.9643 31.1509 63.8107 11.2812C64.9923 10.0354 66.9854 10.0565 68.1423 11.3253C86.7453 31.7281 94.9868 46.6644 101.304 79.4751C101.434 80.1489 101.5 80.8454 101.5 81.5315V343.079C101.5 344.993 101.009 346.87 99.9941 348.493C96.938 353.382 89.8446 363.855 84.5 365C77.5 366.5 52 367.5 45 365C39.6773 363.099 33.1983 353.104 30.3989 348.423C29.4543 346.843 29 345.036 29 343.195V81.7011C29 80.9027 29.089 80.0941 29.2639 79.3152Z" stroke="#3F3F45"/>
<path d="M30.7513 84.9717C37.8105 53.5229 45.7053 39.0976 63.6555 20.1728C64.7809 18.9862 66.6793 19.0063 67.7811 20.2148C85.4995 39.6474 93.3491 53.8735 99.3663 85.124C99.4899 85.7658 99.5527 86.4291 99.5527 87.0827V336.194C99.5527 338.017 99.0848 339.804 98.1184 341.35C95.2076 346.007 88.4515 355.982 83.361 357.072C76.6939 358.501 52.4064 359.454 45.7392 357.072C40.6696 355.262 34.4987 345.742 31.8324 341.283C30.9327 339.779 30.5 338.057 30.5 336.304V87.2442C30.5 86.4838 30.5848 85.7136 30.7513 84.9717Z" stroke="#3F3F45" stroke-width="0.952451"/>
<rect x="45" y="101.5" width="10" height="14" rx="1.5" stroke="#3F3F45"/>
<rect x="75" y="101.5" width="10" height="14" rx="1.5" stroke="#3F3F45"/>
<rect x="56" y="153.5" width="19" height="34" rx="9.5" stroke="#3F3F45"/>
<g filter="url(#filter1_d_7_74)">
<rect x="56" y="198.5" width="19" height="34" rx="9.5" stroke="#3F3F45" shape-rendering="crispEdges"/>
</g>
<rect x="56" y="243.5" width="19" height="24" rx="1.5" stroke="#3F3F45"/>
<path d="M450.934 473.712C358.795 486.396 311.865 487.862 281.391 453.883C279.315 451.568 279.203 448.092 281.192 445.701C309.257 411.972 366.623 413.685 451.051 426.46C454.464 426.976 457 429.918 457 433.37V466.781C457 470.273 454.393 473.236 450.934 473.712Z" stroke="#3F3F45"/>
<path d="M297.5 450.371H343M360.5 450.371L363.865 433.544C364.524 430.251 362.752 426.955 359.642 425.688L356.524 424.418C353.567 423.213 350.081 424.128 348.701 427.008C346.281 432.061 344.837 438.74 343 450.371M360.5 450.371H343M360.5 450.371L363.872 466.857C364.531 470.077 362.861 473.322 359.857 474.657L356.719 476.051C353.681 477.401 350.033 476.466 348.491 473.521C345.319 467.466 344.159 461.054 343 450.371" stroke="#3F3F45"/>
<rect x="315.5" y="437.371" width="4" height="9" rx="1.5" transform="rotate(-90 315.5 437.371)" stroke="#3F3F45"/>
<rect x="315.5" y="465.371" width="4" height="9" rx="1.5" transform="rotate(-90 315.5 465.371)" stroke="#3F3F45"/>
<rect x="376.5" y="444.371" width="19" height="19" rx="2.5" transform="rotate(-90 376.5 444.371)" stroke="#3F3F45"/>
<rect x="376.5" y="474.371" width="19" height="19" rx="2.5" transform="rotate(-90 376.5 474.371)" stroke="#3F3F45"/>
<path d="M428 472.871H422C418.134 472.871 415 469.737 415 465.871V435.371C415 431.505 418.134 428.371 422 428.371H428C431.866 428.371 435 431.505 435 435.371V465.871C435 469.737 431.866 472.871 428 472.871Z" stroke="#3F3F45"/>
<circle cx="315" cy="153" r="10" fill="white"/>
<circle cx="60" cy="456" r="10" fill="white"/>
<rect y="438" width="500" height="62" fill="url(#paint0_linear_7_74)"/>
<rect x="500" y="62" width="500" height="62" transform="rotate(-180 500 62)" fill="url(#paint1_linear_7_74)"/>
<rect x="438" y="500" width="500" height="62" transform="rotate(-90 438 500)" fill="url(#paint2_linear_7_74)"/>
<rect x="62" width="500" height="62" transform="rotate(90 62 0)" fill="url(#paint3_linear_7_74)"/>
</g>
<defs>
<filter id="filter0_d_7_74" x="51.5" y="198" width="28" height="43" filterUnits="userSpaceOnUse" color-interpolation-filters="sRGB">
<feFlood flood-opacity="0" result="BackgroundImageFix"/>
<feColorMatrix in="SourceAlpha" type="matrix" values="0 0 0 0 0 0 0 0 0 0 0 0 0 0 0 0 0 0 127 0" result="hardAlpha"/>
<feOffset dy="4"/>
<feGaussianBlur stdDeviation="2"/>
<feComposite in2="hardAlpha" operator="out"/>
<feColorMatrix type="matrix" values="0 0 0 0 0 0 0 0 0 0 0 0 0 0 0 0 0 0 0.25 0"/>
<feBlend mode="normal" in2="BackgroundImageFix" result="effect1_dropShadow_7_74"/>
<feBlend mode="normal" in="SourceGraphic" in2="effect1_dropShadow_7_74" result="shape"/>
</filter>
<filter id="filter1_d_7_74" x="51.5" y="198" width="28" height="43" filterUnits="userSpaceOnUse" color-interpolation-filters="sRGB">
<feFlood flood-opacity="0" result="BackgroundImageFix"/>
<feColorMatrix in="SourceAlpha" type="matrix" values="0 0 0 0 0 0 0 0 0 0 0 0 0 0 0 0 0 0 127 0" result="hardAlpha"/>
<feOffset dy="4"/>
<feGaussianBlur stdDeviation="2"/>
<feComposite in2="hardAlpha" operator="out"/>
<feColorMatrix type="matrix" values="0 0 0 0 0 0 0 0 0 0 0 0 0 0 0 0 0 0 0.25 0"/>
<feBlend mode="normal" in2="BackgroundImageFix" result="effect1_dropShadow_7_74"/>
<feBlend mode="normal" in="SourceGraphic" in2="effect1_dropShadow_7_74" result="shape"/>
</filter>
<linearGradient id="paint0_linear_7_74" x1="250" y1="438" x2="250" y2="500" gradientUnits="userSpaceOnUse">
<stop stop-opacity="0"/>
<stop offset="1"/>
</linearGradient>
<linearGradient id="paint1_linear_7_74" x1="750" y1="62" x2="750" y2="124" gradientUnits="userSpaceOnUse">
<stop stop-opacity="0"/>
<stop offset="1"/>
</linearGradient>
<linearGradient id="paint2_linear_7_74" x1="688" y1="500" x2="688" y2="562" gradientUnits="userSpaceOnUse">
<stop stop-opacity="0"/>
<stop offset="1"/>
</linearGradient>
<linearGradient id="paint3_linear_7_74" x1="312" y1="0" x2="312" y2="62" gradientUnits="userSpaceOnUse">
<stop stop-opacity="0"/>
<stop offset="1"/>
</linearGradient>
<clipPath id="clip0_7_74">
<rect width="500" height="500" fill="white"/>
</clipPath>
</defs>
</svg>
