<svg width="315" height="298" viewBox="0 0 315 298" fill="none" xmlns="http://www.w3.org/2000/svg">
<path d="M59 200V160L26 200H59Z" fill="#0C2750"/>
<path d="M208 160L241 200H208V160Z" fill="#0C2750"/>
<ellipse cx="133.5" cy="272" rx="133.5" ry="26" fill="#D7DBE2"/>
<rect x="58" y="62" width="151" height="169" rx="9" fill="white"/>
<path d="M41 281H226C234.284 281 241 274.284 241 266V200H187.5C181.977 200 177.5 204.477 177.5 210V212C177.5 217.523 173.023 222 167.5 222H98.5C92.9771 222 88.5 217.523 88.5 212V210C88.5 204.477 84.0228 200 78.5 200H26V266C26 274.284 32.7157 281 41 281Z" fill="#2F6EE7"/>
<rect x="80" y="82" width="108" height="57" rx="4" fill="#D7DBE2"/>
<rect x="80" y="160" width="107" height="10" rx="5" fill="#D7DBE2"/>
<rect x="80" y="184" width="107" height="10" rx="5" fill="#D7DBE2"/>
<path d="M230.98 69.1389L234.5 55.5L246.5 65L232.3 70.3251C231.542 70.6093 230.778 69.9225 230.98 69.1389Z" fill="#D7DBE2"/>
<ellipse cx="271" cy="35.5" rx="44" ry="35.5" fill="#D7DBE2"/>
<path d="M253.634 30.5C254.019 29.8333 254.981 29.8333 255.366 30.5L259.263 37.25C259.648 37.9167 259.167 38.75 258.397 38.75H250.603C249.833 38.75 249.352 37.9167 249.737 37.25L253.634 30.5Z" fill="white"/>
<rect x="267" y="29" width="10" height="10" rx="2" fill="white"/>
<circle cx="288" cy="34" r="5" fill="white"/>
</svg>
